#!OML:ASF F:\VICON\USERDATA\INSTALL\rory3\rory3.ASF
:FULLY-SPECIFIED
:DEGREES
3851
root -1.82791 17.3851 0.501455 20.7666 67.614 0.410461
lowerback 12.1556 13.9731 2.00058
upperback 1.8218 18.6248 -6.38604
thorax -1.80072 9.4179 -9.907
lowerneck -12.7685 -15.4449 -16.9272
upperneck 18.0276 -19.9753 11.1881
head 10.7604 -9.36228 3.54599
rclavicle 4.05521e-014 -3.18055e-014
rhumerus 54.9344 3.21942 -53.3403
rradius 24.4864
rwrist 39.263
rhand -33.9648 0.716502
rfingers 7.12502
rthumb -7.14559 -29.1429
lclavicle 4.05521e-014 -3.18055e-014
lhumerus -73.4044 27.2634 14.6972
lradius 14.1443
lwrist 8.65193
lhand -22.1123 42.2033
lfingers 7.12502
lthumb 4.30036 72.1396
rfemur -27.2613 -33.8089 31.721
rtibia 37.2039
rfoot -42.5966 -25.7126
rtoes 7.87078
lfemur -51.5349 -23.9538 -3.56014
ltibia 31.5158
lfoot 2.4691 -35.9499
ltoes 4.12805
3852
root -1.83139 17.3838 0.514556 21.2987 67.9535 0.86788
lowerback 12.1469 13.8483 1.77736
upperback 1.91453 18.4352 -6.47218
thorax -1.76959 9.32971 -9.8654
lowerneck -12.6987 -15.6072 -16.9167
upperneck 17.708 -20.2559 11.4419
head 10.7035 -9.47617 3.58005
rclavicle -1.07344e-013 5.24792e-014
rhumerus 55.2443 3.03486 -53.5393
rradius 24.2696
rwrist 39.4958
rhand -33.7954 0.646295
rfingers 7.12502
rthumb -6.98204 -29.2186
lclavicle -1.07344e-013 5.24792e-014
lhumerus -73.3276 27.2931 14.6221
lradius 14.0951
lwrist 8.33562
lhand -22.158 42.181
lfingers 7.12502
lthumb 4.25618 72.1182
rfemur -27.3723 -33.559 31.6966
rtibia 37.2623
rfoot -43.1204 -25.7894
rtoes 9.53159
lfemur -51.6614 -23.9228 -3.69188
ltibia 31.3777
lfoot 3.26025 -36.2811
ltoes 5.52985
3853
root -1.83191 17.3795 0.532801 21.2448 68.3236 0.855205
lowerback 12.3119 13.7394 1.69102
upperback 1.943 18.2771 -6.50865
thorax -1.86749 9.24763 -9.89792
lowerneck -12.3055 -15.7091 -17.0019
upperneck 17.2169 -20.5255 11.9611
head 10.5704 -9.58464 3.74339
rclavicle -4.73108e-014 4.85035e-014
rhumerus 55.392 2.91128 -53.6854
rradius 24.0909
rwrist 39.5866
rhand -33.7012 0.598076
rfingers 7.12502
rthumb -6.89114 -29.2698
lclavicle -4.73108e-014 4.85035e-014
lhumerus -73.2117 27.2186 14.3407
lradius 14.0835
lwrist 8.04681
lhand -22.0555 42.4209
lfingers 7.12502
lthumb 4.35515 72.3561
rfemur -27.3717 -33.5831 31.8643
rtibia 37.306
rfoot -43.0606 -26.4699
rtoes 8.27154
lfemur -51.5762 -23.8029 -3.78129
ltibia 31.2506
lfoot 4.00274 -36.7185
ltoes 6.70311
3854
root -1.83196 17.3762 0.552099 21.1801 68.6902 0.748446
lowerback 12.339 13.646 1.52565
upperback 1.95901 18.1302 -6.50289
thorax -1.94269 9.16922 -9.81477
lowerneck -11.8339 -15.7776 -16.9666
upperneck 16.5311 -20.7409 12.3925
head 10.3225 -9.6806 3.87952
rclavicle -1.39149e-014 -4.85035e-014
rhumerus 55.471 2.80712 -53.7403
rradius 23.9924
rwrist 39.6143
rhand -33.5643 0.470238
rfingers 7.12502
rthumb -6.75899 -29.4019
lclavicle -1.39149e-014 -4.85035e-014
lhumerus -72.9869 27.0403 14.2614
lradius 13.9798
lwrist 7.86372
lhand -22.1109 42.4154
lfingers 7.12502
lthumb 4.30167 72.3517
rfemur -27.4614 -33.6969 32.1404
rtibia 37.3427
rfoot -43.0235 -26.9541
rtoes 7.28501
lfemur -51.5748 -23.5918 -3.84447
ltibia 31.1567
lfoot 4.69341 -37.1976
ltoes 7.74549
3855
root -1.83131 17.3755 0.563721 21.4214 68.9714 0.986737
lowerback 12.2663 13.5608 1.19897
upperback 2.04596 17.9781 -6.44075
thorax -1.95744 9.09008 -9.55991
lowerneck -11.6459 -15.8653 -16.9537
upperneck 16.1654 -20.8981 12.5503
head 10.201 -9.75646 3.9147
rclavicle 2.94201e-014 -1.27222e-014
rhumerus 55.5864 2.77356 -53.7119
rradius 23.9166
rwrist 39.6539
rhand -33.4157 0.434371
rfingers 7.12502
rthumb -6.61557 -29.4423
lclavicle 2.94201e-014 -1.27222e-014
lhumerus -72.8006 26.7559 14.545
lradius 13.93
lwrist 7.75962
lhand -22.1526 42.1459
lfingers 7.12502
lthumb 4.26144 72.083
rfemur -27.4777 -33.7079 32.1898
rtibia 37.3367
rfoot -43.2885 -27.1107
rtoes 7.63171
lfemur -51.5868 -23.5192 -3.98811
ltibia 31.1221
lfoot 5.12247 -37.4917
ltoes 8.21712
3856
root -1.83067 17.3754 0.572751 21.6467 69.1695 1.20664
lowerback 12.2093 13.4736 0.833663
upperback 2.11446 17.8167 -6.35616
thorax -2.01875 9.00231 -9.27161
lowerneck -11.6688 -15.9414 -16.9579
upperneck 16.0807 -20.9853 12.512
head 10.1838 -9.80183 3.88298
rclavicle -3.57812e-015 -7.15625e-015
rhumerus 55.736 2.8535 -53.579
rradius 23.7932
rwrist 39.626
rhand -33.2155 0.528997
rfingers 7.12502
rthumb -6.42224 -29.3536
lclavicle -3.57812e-015 -7.15625e-015
lhumerus -72.7827 26.5979 14.487
lradius 13.8669
lwrist 7.44971
lhand -22.4163 41.8903
lfingers 7.12502
lthumb 4.00678 71.8324
rfemur -27.4691 -33.4608 32.1816
rtibia 37.3445
rfoot -43.8933 -27.1013
rtoes 8.86216
lfemur -51.6021 -23.4507 -4.09838
ltibia 31.0985
lfoot 5.35451 -37.7963
ltoes 8.30675
3857
root -1.82969 17.378 0.582759 21.768 69.3603 1.31704
lowerback 12.2166 13.4137 0.865607
upperback 2.18405 17.7498 -6.52341
thorax -1.89322 8.98417 -9.43945
lowerneck -11.6691 -16.0747 -16.83
upperneck 15.8855 -21.2475 12.7953
head 10.1772 -9.89541 3.90834
rclavicle -9.42239e-014 1.82882e-014
rhumerus 55.7986 2.35549 -54.163
rradius 23.5731
rwrist 40.191
rhand -32.9807 0.557043
rfingers 7.12502
rthumb -6.19556 -29.3324
lclavicle -9.42239e-014 1.82882e-014
lhumerus -72.0804 26.4555 14.5253
lradius 13.7762
lwrist 7.23692
lhand -22.5431 41.9524
lfingers 7.12502
lthumb 3.88435 71.8967
rfemur -27.4709 -33.3108 32.2424
rtibia 37.3494
rfoot -44.2276 -27.269
rtoes 9.49166
lfemur -51.632 -23.365 -4.15852
ltibia 31.0833
lfoot 5.80946 -37.9976
ltoes 8.98455
3858
root -1.82684 17.376 0.59504 21.706 69.6192 1.25016
lowerback 12.1626 13.2785 1.11695
upperback 2.32697 17.6212 -6.69451
thorax -1.6017 8.94722 -9.67915
lowerneck -11.6246 -16.1737 -16.7151
upperneck 15.5312 -21.4515 13.0893
head 10.1005 -9.96976 3.95573
rclavicle -9.06458e-014 4.92986e-014
rhumerus 56.0324 2.00938 -54.4375
rradius 23.3669
rwrist 40.2246
rhand -32.8172 0.146935
rfingers 7.12502
rthumb -6.03774 -29.747
lclavicle -9.06458e-014 4.92986e-014
lhumerus -71.5081 26.4386 14.4275
lradius 13.767
lwrist 7.13009
lhand -22.4209 41.9877
lfingers 7.12502
lthumb 4.00237 71.9299
rfemur -27.5043 -33.4556 32.4408
rtibia 37.3704
rfoot -44.2018 -27.6218
rtoes 9.67758
lfemur -51.6675 -23.3225 -4.13351
ltibia 31.0852
lfoot 6.40435 -38.1888
ltoes 10.0172
3859
root -1.8242 17.3737 0.607697 21.46 69.8311 1.08086
lowerback 12.1694 13.1376 1.16303
upperback 2.42264 17.4479 -6.70685
thorax -1.51508 8.86828 -9.68864
lowerneck -11.636 -16.2345 -16.7471
upperneck 15.3772 -21.5597 13.277
head 10.0936 -10.0091 3.99998
rclavicle 8.07066e-014 -2.22639e-014
rhumerus 56.1446 2.16349 -54.1312
rradius 23.3399
rwrist 39.6637
rhand -32.7831 -0.273195
rfingers 7.12502
rthumb -6.00477 -30.1681
lclavicle 8.07066e-014 -2.22639e-014
lhumerus -71.2417 26.3021 14.2642
lradius 13.7883
lwrist 6.88902
lhand -22.525 41.9401
lfingers 7.12502
lthumb 3.90176 71.8842
rfemur -27.4194 -33.5369 32.5596
rtibia 37.4237
rfoot -44.2917 -27.9146
rtoes 9.77573
lfemur -51.5351 -23.2703 -4.1489
ltibia 31.0434
lfoot 6.84539 -38.4148
ltoes 10.7029
3860
root -1.82245 17.3739 0.620066 21.5607 69.9213 1.20731
lowerback 12.144 13.0648 0.94642
upperback 2.4524 17.3262 -6.73545
thorax -1.54439 8.80604 -9.59856
lowerneck -11.5604 -16.3226 -17.0272
upperneck 15.3297 -21.7232 13.6481
head 10.1729 -10.0713 4.12977
rclavicle 6.75868e-015 -4.05521e-014
rhumerus 56.1902 2.17886 -54.1884
rradius 23.2756
rwrist 39.664
rhand -32.537 -0.778784
rfingers 7.12502
rthumb -5.76721 -30.6803
lclavicle 6.75868e-015 -4.05521e-014
lhumerus -70.9753 26.2814 13.7399
lradius 13.6684
lwrist 6.39403
lhand -22.6635 42.027
lfingers 7.12502
lthumb 3.76808 71.9734
rfemur -27.42 -33.4851 32.5532
rtibia 37.522
rfoot -44.5916 -28.0493
rtoes 10.11
lfemur -51.4209 -23.131 -4.30397
ltibia 30.9661
lfoot 7.10718 -38.6357
ltoes 10.5891
3861
root -1.81782 17.3787 0.628597 21.905 70.082 1.55967
lowerback 12.1018 12.9736 0.81031
upperback 2.47983 17.1935 -6.81035
thorax -1.53002 8.74329 -9.58752
lowerneck -11.6252 -16.4488 -17.2869
upperneck 15.403 -21.9208 13.9426
head 10.3144 -10.1441 4.21237
rclavicle 7.03698e-014 -1.19271e-014
rhumerus 56.138 2.08469 -54.246
rradius 23.1869
rwrist 39.7029
rhand -32.476 -0.867722
rfingers 7.12502
rthumb -5.70833 -30.7708
lclavicle 7.03698e-014 -1.19271e-014
lhumerus -70.6353 26.2764 13.2643
lradius 13.6461
lwrist 5.91323
lhand -22.8573 42.4204
lfingers 7.12502
lthumb 3.58092 72.3701
rfemur -27.4663 -33.3997 32.4644
rtibia 37.6475
rfoot -44.799 -28.3702
rtoes 10.998
lfemur -51.3705 -23.0368 -4.52871
ltibia 30.8561
lfoot 7.74761 -38.8985
ltoes 11.1323
3862
root -1.81262 17.3802 0.63778 21.9657 70.2157 1.60498
lowerback 12.0227 12.9123 0.75155
upperback 2.46972 17.1092 -6.87143
thorax -1.51028 8.70372 -9.59754
lowerneck -11.6921 -16.5522 -17.3563
upperneck 15.6353 -22.0945 14.047
head 10.4615 -10.2073 4.21085
rclavicle -2.70347e-014 1.66979e-014
rhumerus 56.0208 1.99274 -54.3226
rradius 23.1015
rwrist 39.7577
rhand -32.3412 -0.987522
rfingers 7.12502
rthumb -5.57817 -30.8941
lclavicle -2.70347e-014 1.66979e-014
lhumerus -70.2702 26.1516 12.8932
lradius 13.6881
lwrist 5.58622
lhand -22.9498 42.6329
lfingers 7.12502
lthumb 3.4916 72.584
rfemur -27.5109 -33.3184 32.4978
rtibia 37.792
rfoot -45.0529 -28.5878
rtoes 12.9523
lfemur -51.3386 -22.9946 -4.58656
ltibia 30.7622
lfoot 7.99271 -39.0704
ltoes 11.0732
3863
root -1.80575 17.3802 0.644117 22.2457 70.2412 1.86719
lowerback 11.8759 12.8687 0.536796
upperback 2.47395 17.0305 -6.89821
thorax -1.49441 8.6639 -9.47969
lowerneck -11.8069 -16.6837 -17.3739
upperneck 16.0372 -22.2859 13.9701
head 10.6503 -10.2838 4.1324
rclavicle 2.34566e-013 -6.2816e-014
rhumerus 55.8943 2.09943 -54.0248
rradius 23.1343
rwrist 39.4764
rhand -32.3563 -1.0855
rfingers 7.12502
rthumb -5.59271 -30.9917
lclavicle 2.34566e-013 -6.2816e-014
lhumerus -69.8436 25.8291 12.9886
lradius 13.7745
lwrist 5.78664
lhand -23.0828 42.5717
lfingers 7.12502
lthumb 3.36313 72.525
rfemur -27.5906 -33.3365 32.4542
rtibia 37.9446
rfoot -45.161 -28.8748
rtoes 13.7304
lfemur -51.3252 -23.0346 -4.6533
ltibia 30.6528
lfoot 8.35462 -39.0399
ltoes 11.8673
3864
root -1.79942 17.3765 0.650172 22.4378 70.3396 2.03402
lowerback 11.7618 12.7741 0.349051
upperback 2.46569 16.8847 -6.88465
thorax -1.52469 8.58639 -9.34021
lowerneck -11.9254 -16.783 -17.4604
upperneck 16.3288 -22.4133 13.9189
head 10.8022 -10.3358 4.08567
rclavicle 1.86858e-014 5.32743e-014
rhumerus 55.8344 2.33492 -53.7439
rradius 23.1804
rwrist 39.0166
rhand -32.2299 -1.50267
rfingers 7.12502
rthumb -5.4707 -31.412
lclavicle 1.86858e-014 5.32743e-014
lhumerus -69.7704 25.9305 12.2121
lradius 13.7682
lwrist 5.29649
lhand -23.4656 42.3757
lfingers 7.12502
lthumb 2.9935 72.3344
rfemur -27.733 -33.4988 32.5088
rtibia 38.088
rfoot -45.0348 -29.3496
rtoes 13.0949
lfemur -51.3194 -22.9768 -4.77064
ltibia 30.5844
lfoot 8.61762 -39.1961
ltoes 12.1872
